<?xml version="1.0" encoding="UTF-8" standalone="no"?>
<svg
   width="640mm"
   height="160mm"
   version="1.1"
   viewBox="0 0 2418.9 604.72"
   id="svg82"
   xml:space="preserve"
   sodipodi:docname="storehive-wholesale-logo.svg"
   inkscape:version="1.4 (86a8ad7, 2024-10-11)"
   xmlns:inkscape="http://www.inkscape.org/namespaces/inkscape"
   xmlns:sodipodi="http://sodipodi.sourceforge.net/DTD/sodipodi-0.dtd"
   xmlns="http://www.w3.org/2000/svg"
   xmlns:svg="http://www.w3.org/2000/svg"><sodipodi:namedview
     id="namedview1"
     pagecolor="#ffffff"
     bordercolor="#000000"
     borderopacity="0.25"
     inkscape:showpageshadow="2"
     inkscape:pageopacity="0.0"
     inkscape:pagecheckerboard="0"
     inkscape:deskcolor="#d1d1d1"
     inkscape:document-units="mm"
     inkscape:zoom="0.3716569"
     inkscape:cx="3637.7637"
     inkscape:cy="301.35321"
     inkscape:window-width="1920"
     inkscape:window-height="1051"
     inkscape:window-x="-9"
     inkscape:window-y="-9"
     inkscape:window-maximized="1"
     inkscape:current-layer="svg82"><inkscape:page
       x="0"
       y="0"
       width="2418.8999"
       height="604.71997"
       id="page1"
       margin="0"
       bleed="0" /><inkscape:page
       x="2428.8999"
       y="0"
       width="1024.001"
       height="1023.9925"
       id="page2"
       margin="0"
       bleed="0" /></sodipodi:namedview><defs
     id="defs86" /><rect
     style="opacity:1;vector-effect:none;fill:none;fill-opacity:1;stroke:none;stroke-width:3.07625;stroke-linecap:butt;stroke-linejoin:miter;stroke-miterlimit:4;stroke-dasharray:none;stroke-dashoffset:0;stroke-opacity:1;-inkscape-stroke:none"
     id="storehive-wholesale-logo"
     width="2396.7419"
     height="582.56476"
     x="22.157959"
     y="22.157698" /><path
     style="font-variation-settings:normal;opacity:1;vector-effect:none;fill:#0a817b;fill-opacity:0.988235;stroke:none;stroke-width:6;stroke-linecap:butt;stroke-linejoin:miter;stroke-miterlimit:4;stroke-dasharray:none;stroke-dashoffset:0;stroke-opacity:1;-inkscape-stroke:none"
     d="m 308.7429,514.70641 c 27.1664,-4.51161 53.1345,-13.89123 71.4231,-22.23236 l -0.6186,-70.99217 -107.2212,37.92567 z"
     id="path26" /><g
     id="g17"
     transform="translate(0.01169766,0.02541719)"><path
       style="font-variation-settings:normal;opacity:1;vector-effect:none;fill:#074b49;fill-opacity:1;stroke:none;stroke-width:6;stroke-linecap:butt;stroke-linejoin:miter;stroke-miterlimit:4;stroke-dasharray:none;stroke-dashoffset:0;stroke-opacity:1;-inkscape-stroke:none;stop-color:#000000;stop-opacity:1"
       d="m 544.1665,159.6151 v 93.49268 l -86.69082,42.64391 -176.68124,-37.1827 C 253.34053,252.79129 188.19388,229.24473 171.93271,190.04993 136.7202,105.17615 531.56282,147.6416 544.1665,159.6151 Z"
       id="path24" /><path
       d="m 105.19713,125.20615 246.42582,77.66128 c 30.47158,9.60314 51.63372,37.26488 52.12197,69.21014 l 2.52681,165.32232 c 0.52873,34.61834 -12.64242,63.83615 -45.85812,54.0675 L 294.28468,352.58453 V 307.86914 L 195.79183,274.99238 C 143.65492,257.58991 107.02164,210.64041 102.81832,155.83681 Z"
       fill="#05716c"
       stop-color="#000000"
       style="font-variation-settings:normal;fill:#0a817b;fill-opacity:0.988235;stroke:none;stroke-width:12.4243"
       id="path25" /><path
       id="path26-4"
       style="font-variation-settings:normal;vector-effect:none;fill:#074b49;fill-opacity:1;stroke:none;stroke-width:6;stroke-linecap:butt;stroke-linejoin:miter;stroke-miterlimit:4;stroke-dasharray:none;stroke-dashoffset:0;stroke-opacity:1;-inkscape-stroke:none"
       d="m 294.2843,364.25587 c -42.83901,3.77367 -88.68818,-38.35171 -135.6641,-38.16043 -25.53364,0.10397 -53.8103,12.96473 -73.5685,21.34181 l 6.8223,64.1153 15.6738,-4.9336 v 10.48048 z" /><path
       d="m 24.407341,146.41859 271.215609,82.44884 c 30.56773,9.29254 51.63363,37.26489 52.12197,69.21014 l 2.52681,165.32232 c 0.52873,34.61834 -32.64244,59.83615 -65.85814,50.0675 L 31.547751,439.09901 v -20.63093 c -1.53e-4,-49.47125 47.587034,-85.02488 95.028039,-70.99793 l 91.70887,27.11438 V 329.86914 L 119.79181,296.99238 C 67.654882,279.58993 31.021578,232.64043 26.818249,177.83681 Z"
       fill="#05716c"
       stop-color="#000000"
       style="font-variation-settings:normal;stroke:none;stroke-width:12.4243"
       id="path11" /><path
       d="M 24.407341,146.41859 223.53652,94.134558 c 24.97933,-6.693253 51.28044,-6.693253 76.25977,0 l 244.37303,65.480692 -87.23881,41.70747 -136.4284,-41.39931 c -20.30959,-6.16296 -60.17469,3.79636 -80.03128,11.29148 L 180.47252,193.862"
       fill="#1fbfb8"
       stop-color="#000000"
       style="font-variation-settings:normal;stroke:none;stroke-width:12.4243"
       id="path12" /><g
       id="g29"
       transform="matrix(0.95711324,0,0,0.95711324,27.2962,5.1482155)"><path
         d="m 744.20486,349.61428 c -34.86662,0 -52.88714,-14.10338 -54.84623,-42.31013 h -52.88714 c 1.56706,57.97975 37.21649,87.36195 107.72927,87.36195 67.38233,0 102.6418,-25.85584 105.77018,-77.95935 1.56706,-33.69117 -12.53611,-55.62987 -42.31012,-65.81507 -22.33052,-7.83522 -43.48456,-13.71156 -63.46417,-18.41234 -34.86662,-7.83512 -51.71169,-19.97961 -51.71169,-36.82468 1.17525,-20.37143 15.27883,-30.94845 43.48455,-31.34026 23.11415,0 39.17559,7.4434 48.18636,22.72233 5.09281,10.18571 12.92793,15.67064 24.28858,15.67064 h 30.55663 c -3.13403,-55.23805 -35.65026,-82.66116 -98.33078,-82.66116 -65.81507,-0.39182 -99.11442,27.0313 -100.28987,83.05298 0,35.25844 25.85584,59.54701 77.95935,72.86675 19.19598,5.09281 37.2165,9.7939 52.88715,14.4952 16.45427,4.70109 24.28857,13.31974 24.28857,26.24766 0.39172,21.9387 -16.45428,32.90753 -51.31987,32.90753 z"
         stop-color="#000000"
         id="path4"
         style="fill:#1fbfb8;stroke:none;stroke-width:12.4243" /><path
         d="M 960.06342,194.83615 V 183.4755 h -31.34026 v -32.90754 c 0,-13.71155 -11.36065,-26.24766 -25.07221,-26.24766 h -27.0313 v 226.43353 c -0.39171,23.11313 9.01037,35.25844 28.59857,37.2165 19.5882,1.95806 38.00013,1.95878 54.84623,0.39182 v -39.5674 h -16.06246 c -10.18572,0 -15.27883,-4.7011 -15.27883,-13.31974 V 220.68892 h 5.48462 c 14.4952,0 25.85585,-10.96884 25.85585,-25.85585 z"
         stop-color="#000000"
         id="path5"
         style="fill:#1fbfb8;stroke:none;stroke-width:12.4243" /><path
         d="m 1074.4085,180.37378 c -62.6816,0 -94.02186,35.65025 -94.02186,107.72927 0,71.29949 31.34026,107.33951 94.02186,107.33951 62.6815,0 94.4136,-36.04208 94.4136,-107.33951 0,-72.08312 -31.7321,-107.72927 -94.4136,-107.72927 z m 0,45.83546 c 26.6394,0 39.9592,19.97961 39.9592,60.33064 -0.3918,41.13468 -13.7116,62.28974 -40.3511,62.28974 -26.6394,0 -40.351,-20.37143 -40.7428,-60.72247 0,-41.13467 13.7115,-61.89791 41.1347,-61.89791 z"
         stop-color="#000000"
         id="path6"
         style="fill:#1fbfb8;stroke:none;stroke-width:12.4243" /><path
         d="m 1193.9025,390.74485 h 52.8872 V 283.01558 c 0,-30.16481 14.4951,-45.44364 43.4845,-45.44364 h 17.6287 v -54.0626 h -7.4433 c -69.3414,0 -104.9906,33.29936 -106.56,100.28987 z"
         stop-color="#000000"
         id="path7"
         style="fill:#1fbfb8;stroke:none;stroke-width:12.4243" /><path
         d="m 1515.1518,327.25402 h -38.392 c -7.0517,0 -12.9279,2.35049 -17.6287,7.4433 -10.1857,9.794 -21.5469,14.88701 -33.6912,14.88701 -25.464,0 -39.1756,-16.06246 -41.1346,-47.79454 h 133.9769 c 3.9175,-81.0939 -27.0313,-121.44288 -92.8464,-121.44288 -63.0723,0.39181 -94.8054,35.65025 -94.8054,106.1702 0,70.51996 31.3402,106.94974 94.0218,108.90883 50.928,0 79.1348,-24.28858 90.4954,-68.16597 z M 1424.6563,223.0429 c 22.3305,0 35.2584,14.10338 38.3919,41.52649 h -77.9593 c 3.9175,-27.42311 17.2369,-41.52649 39.5674,-41.52649 z"
         stop-color="#000000"
         id="path8"
         style="fill:#1fbfb8;stroke:none;stroke-width:12.4243" /><path
         d="m 1601.6183,152.88502 v 237.79829 h 55.238 V 272.76884 h 109.2986 v 117.91447 h 55.238 V 124.2885 h -55.238 v 99.50624 H 1656.8563 V 124.2885 h -27.8149 c -15.2789,0 -27.4231,13.31974 -27.4231,28.59857 z"
         stop-color="#000000"
         id="path13"
         style="fill:#05716c;stroke:none;stroke-width:12.4243" /><path
         d="m 1846.5554,124.26799 v 40.74286 h 52.1035 v -15.27883 c 0.3918,-16.8461 -7.8351,-25.46403 -25.0722,-25.46403 z m 0,59.1552 v 207.24268 h 52.1035 V 208.50155 c 0,-16.84507 -8.2268,-25.07221 -25.0722,-25.07221 z"
         stop-color="#000000"
         id="path14"
         style="fill:#05716c;stroke:none;stroke-width:12.4243" /><path
         d="m 2085.1332,183.45088 c -12.9279,0 -21.5468,6.26816 -25.464,18.41234 l -36.041,126.93038 -41.9183,-145.34169 h -57.588 l 72.8668,207.24268 h 55.238 l 73.2586,-207.24268 z"
         stop-color="#000000"
         id="path15"
         style="fill:#05716c;stroke:none;stroke-width:12.4243" /><path
         d="m 2320.1211,327.25402 h -38.3919 c -7.0517,0 -12.928,2.35049 -17.6287,7.4433 -10.1857,9.794 -21.5469,14.88701 -33.6912,14.88701 -25.464,0 -39.1756,-16.06246 -41.1347,-47.79454 h 133.9769 c 3.9176,-81.0939 -27.0313,-121.44288 -92.8463,-121.44288 -63.0724,0.39181 -94.8055,35.65025 -94.8055,106.1702 0,70.51996 31.3403,106.94974 94.0218,108.90883 50.9281,0 79.1349,-24.28858 90.4955,-68.16597 z M 2229.6257,223.0429 c 22.3305,0 35.2584,14.10338 38.3919,41.52649 h -77.9594 c 3.9176,-27.42311 17.2369,-41.52649 39.5675,-41.52649 z"
         stop-color="#000000"
         id="path16"
         style="fill:#05716c;stroke:none;stroke-width:12.4243" /><path
         d="m 2353.0461,349.61428 c -11.3607,0 -16.8451,5.09281 -16.8451,15.27883 v 25.85584 h 44.2682 v -41.13467 z"
         stop-color="#000000"
         id="path17"
         style="fill:#05716c;stroke:none;stroke-width:12.4243" /></g><path
       style="font-variation-settings:normal;opacity:1;vector-effect:none;fill:#023533;fill-opacity:1;stroke:none;stroke-width:6;stroke-linecap:butt;stroke-linejoin:miter;stroke-miterlimit:4;stroke-dasharray:none;stroke-dashoffset:0;stroke-opacity:1;-inkscape-stroke:none"
       d="m 351.62295,202.86743 -56,26 -0.29783,136.06588 -24.54948,-20.57202 -18.14271,4.51485 -2.4317,-133.81679 53.58557,-27.26752 z"
       id="path28" /><g
       id="g30"
       transform="translate(0,-7.0699495)"><path
         style="opacity:1;vector-effect:none;fill:none;fill-opacity:0;stroke:#05716c;stroke-width:5.99999;stroke-linecap:butt;stroke-linejoin:miter;stroke-miterlimit:4;stroke-dasharray:none;stroke-dashoffset:0;stroke-opacity:1;-inkscape-stroke:none"
         d="M 636.47149,462.9642 H 1472.692"
         id="path29" /><circle
         style="opacity:1;vector-effect:none;fill:#05716c;fill-opacity:1;stroke:none;stroke-width:5.99999;stroke-linecap:butt;stroke-linejoin:miter;stroke-miterlimit:4;stroke-dasharray:none;stroke-dashoffset:0;stroke-opacity:1;-inkscape-stroke:none"
         id="path30"
         cx="1485.5898"
         cy="462.9642"
         r="18.89786" /></g><path
       style="font-size:76.0443px;font-family:'Helios Antique';-inkscape-font-specification:'Helios Antique';text-align:end;letter-spacing:22.28px;text-anchor:end;white-space:pre;fill:#1fbfb8;stroke-width:5.34688"
       d="m 1562.2742,483.65082 h 5.6272 l 15.2849,-49.65693 15.361,49.65693 h 5.4752 l 19.6955,-55.51234 h -5.3992 l -16.9579,49.35275 -15.2088,-49.35275 h -5.9315 l -15.2088,49.50484 -17.11,-49.50484 h -5.3231 z m 93.7616,0 h 5.0189 v -24.94253 h 34.6002 v 24.94253 h 5.0949 v -55.51234 h -5.0949 v 25.93111 h -34.6002 v -25.93111 h -5.0189 z m 107.0694,1.14066 c 16.2735,0 28.0603,-12.16709 28.0603,-28.89683 0,-16.72975 -11.7868,-28.89683 -28.0603,-28.89683 -16.3495,0 -28.1364,12.16708 -28.1364,28.89683 0,16.72974 11.7869,28.89683 28.1364,28.89683 z m 0,-4.6387 c -13.3077,0 -22.8893,-10.18994 -22.8893,-24.25813 0,-14.0682 9.5816,-24.25813 22.8893,-24.25813 13.2317,0 22.8133,10.18993 22.8133,24.25813 0,14.06819 -9.5816,24.25813 -22.8133,24.25813 z m 62.3554,3.49804 h 37.5658 v -4.56266 h -32.5469 v -50.94968 h -5.0189 z m 74.9787,-4.56266 V 458.5562 h 30.7219 v -4.6387 h -30.7219 v -21.21636 h 33.9918 v -4.56266 h -39.0107 v 55.51234 h 39.0868 v -4.56266 z m 87.0698,5.70332 c 11.1785,0 20.5319,-5.62728 20.5319,-15.89326 0,-10.6462 -9.8097,-13.76401 -19.011,-16.19743 -7.9847,-2.12924 -15.5131,-4.33453 -15.5131,-11.17851 0,-6.23563 5.9315,-9.88576 14.6766,-9.88576 4.9429,0 10.9504,1.59693 15.8172,4.33452 l 1.5969,-4.56265 c -5.6273,-2.81364 -11.2545,-4.41057 -17.0339,-4.41057 -12.4713,-0.0761 -20.3038,5.3231 -20.3038,14.6005 0,10.79829 10.1899,13.45984 18.7069,15.74117 8.5169,2.20529 15.8172,4.71475 15.8172,11.48269 0,7.60443 -6.9201,11.3306 -15.2089,11.3306 -6.4637,0 -12.8515,-2.0532 -18.2506,-5.24706 l -1.9011,4.41057 c 6.3877,3.422 12.4712,5.47519 20.0757,5.47519 z m 50.4164,-1.14066 h 5.3991 l 6.0075,-14.0682 h 30.5698 l 6.0075,14.0682 h 5.4752 l -24.03,-55.51234 h -5.3231 z m 13.3077,-18.63085 13.4599,-31.33025 13.3077,31.33025 z m 71.861,18.63085 h 37.5659 v -4.56266 h -32.547 v -50.94968 h -5.0189 z m 74.9788,-4.56266 V 458.5562 h 30.7219 v -4.6387 h -30.7219 v -21.21636 h 33.9918 v -4.56266 h -39.0107 v 55.51234 h 39.0867 v -4.56266 z m 87.0697,5.70332 c 11.1785,0 20.532,-5.62728 20.532,-15.89326 0,-10.6462 -9.8097,-13.76401 -19.0111,-16.19743 -7.9847,-2.12924 -15.513,-4.33453 -15.513,-11.17851 0,-6.23563 5.9314,-9.88576 14.6765,-9.88576 4.9429,0 10.9504,1.59693 15.8172,4.33452 l 1.597,-4.56265 c -5.6273,-2.81364 -11.2546,-4.41057 -17.034,-4.41057 -12.4712,-0.0761 -20.3038,5.3231 -20.3038,14.6005 0,10.79829 10.1899,13.45984 18.7069,15.74117 8.517,2.20529 15.8172,4.71475 15.8172,11.48269 0,7.60443 -6.92,11.3306 -15.2088,11.3306 -6.4638,0 -12.8515,-2.0532 -18.2507,-5.24706 l -1.9011,4.41057 c 6.3877,3.422 12.4713,5.47519 20.0757,5.47519 z"
       id="text30"
       aria-label="WHOLESALES" /></g><g
     id="g24"
     transform="matrix(1.4462584,0,0,1.4462584,-3806.2323,-185.94772)"><path
       style="fill:none;stroke:#1fbfb8;stroke-width:6.00001;stroke-dasharray:none;stroke-opacity:1"
       d="m 2972.995,427.75325 12.21,-33.91334 c 3.7179,-10.32637 9.9354,-12.95 17.0802,-12.95 h 27.7091"
       id="path20" /><circle
       style="font-variation-settings:normal;opacity:1;fill:none;fill-opacity:1;stroke:#1fbfb8;stroke-width:11.5;stroke-linecap:butt;stroke-linejoin:miter;stroke-miterlimit:4;stroke-dasharray:none;stroke-dashoffset:0;stroke-opacity:1;stop-color:#000000;stop-opacity:1"
       id="circle21"
       cx="2977.1687"
       cy="462.96518"
       r="9.4845619" /><circle
       style="font-variation-settings:normal;opacity:1;fill:none;fill-opacity:1;stroke:#1fbfb8;stroke-width:12.2545;stroke-linecap:butt;stroke-linejoin:miter;stroke-miterlimit:4;stroke-dasharray:none;stroke-dashoffset:0;stroke-opacity:1;stop-color:#000000;stop-opacity:1"
       id="circle22"
       cx="3037.1414"
       cy="461.96564"
       r="10.106848" /><g
       id="g23"
       style="fill:#1fbfb8;fill-opacity:1"><path
         style="fill:#1fbfb8;fill-opacity:1;stroke-width:0.999999;-inkscape-stroke:none"
         d="m 3015.2433,407.45625 h 31.9999 v 33.99999 c -16.1198,-3.53586 -28.8592,2.65356 -30.4999,20.49999 h -19.2476 c 0,0 -1.8765,-13.31172 -10.1423,-16.63041 -8.0082,-3.21528 -15.8974,-2.76796 -18.8276,-1.53027 -3.4356,1.45116 -3.9618,4.80406 -6.475,2.80208 -0.6814,-0.54281 -0.335,-3.542 -0.5816,-7.49138 -0.3464,-5.54929 1.228,-12.3987 3.5804,-13.24916 3.5624,-1.28795 6.3798,-1.26784 9.9445,-1.35236 3.3013,2.46449 3.1597,3.35242 5.2508,3.85124 3.8882,0.92754 1.0834,7.18609 9.094,8.03492 6.0753,0.64376 2.7234,-8.93465 11.9441,-8.93465 h 13.9603 z"
         id="path19" /><path
         style="font-variation-settings:normal;opacity:1;fill:#1fbfb8;fill-opacity:1;stroke:none;stroke-width:11.5;stroke-linecap:butt;stroke-linejoin:miter;stroke-miterlimit:4;stroke-dasharray:none;stroke-dashoffset:0;stroke-opacity:1"
         d="m 2995.2176,412.18041 c 1.9914,1.26243 2.3662,2.2228 3.8431,4.08365 0.673,0.84802 0.5049,2.49012 -0.3531,3.22869 -1.8871,-0.0943 -6.3919,-4.50268 -6.7777,-6.69663 0.2926,-1.73796 2.4237,-1.16345 3.2877,-0.61571 z"
         id="path22" /></g><path
       style="font-variation-settings:normal;opacity:1;vector-effect:none;fill:none;fill-opacity:1;stroke:#1fbfb8;stroke-width:6.00001;stroke-linecap:butt;stroke-linejoin:miter;stroke-miterlimit:4;stroke-dasharray:none;stroke-dashoffset:0;stroke-opacity:1;-inkscape-stroke:none;stop-color:#000000;stop-opacity:1"
       d="m 2946.8077,367.38372 v 102.45331 h -22.2362"
       id="path23" /></g><path
     style="font-variation-settings:normal;opacity:1;vector-effect:none;fill:#1db8b1;fill-opacity:0.984314;stroke:none;stroke-width:6;stroke-linecap:butt;stroke-linejoin:miter;stroke-miterlimit:4;stroke-dasharray:none;stroke-dashoffset:0;stroke-opacity:1;-inkscape-stroke:none"
     d="m 456.9394,201.34794 0.5453,94.42888 86.6907,-42.64387 v -93.49258 z"
     id="path27" /><rect
     style="fill:#a9c3c3;stroke-width:0.999999;-inkscape-stroke:none"
     id="rect2"
     width="1024"
     height="1024"
     x="2428.8977"
     y="-0.0024999999"
     ry="94.518257" /></svg>
